<svg xmlns="http://www.w3.org/2000/svg" width="91.384" height="91.384" viewBox="0 0 91.384 91.384">
  <g id="plane" transform="translate(0 0)">
    <path id="Path_528" data-name="Path 528" d="M327.727,177.949l14.994,51.7-7.838,7.838-24.012-42.68,4.638-10.109Z" transform="translate(-255.386 -146.188)" fill="#fca88d"/>
    <path id="Path_529" data-name="Path 529" d="M43.165,54.53.485,30.518,8.323,22.68l51.7,14.994L53.547,49.619Z" transform="translate(-0.398 -18.632)" fill="#fc8965"/>
    <path id="Path_530" data-name="Path 530" d="M127.354,382.7l2.309,15.251-7.828,7.828-7.659-13.13,2.295-6.533Z" transform="translate(-93.797 -314.392)" fill="#04303e"/>
    <path id="Path_531" data-name="Path 531" d="M13.13,326.541,0,318.882l7.828-7.828,15.251,2.309-3.415,10.883Z" transform="translate(0 -255.536)" fill="#07485e"/>
    <path id="Path_532" data-name="Path 532" d="M119.818,73.526l46.048-46.048a8.994,8.994,0,0,0,0-12.719l-35.441,29.97L93.871,86.754,97.5,90.378Z" transform="translate(-77.117 -12.125)" fill="#fc8965"/>
    <path id="Path_533" data-name="Path 533" d="M136.466,2.634,90.418,48.682,73.566,71l3.624,3.624,71.995-72a8.994,8.994,0,0,0-12.719,0Z" transform="translate(-60.436)" fill="#fca88d"/>
    <path id="Path_534" data-name="Path 534" d="M114.09,65.175a5.8,5.8,0,0,0,8.206,0L139.23,48.241l-8.206-8.206L114.09,56.969A5.8,5.8,0,0,0,114.09,65.175Z" transform="translate(-92.33 -32.89)" fill="#fca88d"/>
    <path id="Path_535" data-name="Path 535" d="M323.287,274.372a5.8,5.8,0,0,1,0-8.206l16.934-16.934,8.206,8.206-16.934,16.934A5.8,5.8,0,0,1,323.287,274.372Z" transform="translate(-264.189 -204.748)" fill="#fc8965"/>
  </g>
</svg>
