<svg xmlns="http://www.w3.org/2000/svg" width="40" height="38.888"><path d="M27.203 9.537l-6.75-2.379-7.384 2.472 6.927 2.316zm-16.747 1.714v10.282l8.475 2.676V14.085zm10.607 2.834V24.21l8.843-2.792v-10.29zm10.991-3.762v10.334L40 18.148V7.666zm0 12.86v11.784L40 32.198V20.674zm-2.148.762l-8.843 2.792v12.151l8.843-3.081zm-10.975 2.792l-8.475-2.676v11.875l8.475 2.953zM9.679 8.361l7.483-2.506-7.536-2.656-8.149 2.419zm14.092-2.447l6.753 2.38 8-2.675-7.352-2.183zM20.466 4.61l7.074-2.369-7.551-2.242-6.842 2.031zM8.314 20.773V10.446L0 7.666v10.482zm0 2.526L0 20.674v11.525l8.314 2.9z" fill="#f96332"/></svg>