<svg xmlns="http://www.w3.org/2000/svg" width="40" height="38.888" viewBox="0 0 40 38.888">
  <g id="greatbase-logo" transform="translate(0 -11.944)">
    <path id="XMLID_149_" d="M181.9,103.437l-6.75-2.379-7.384,2.472,6.927,2.316Z" transform="translate(-154.697 -81.956)" fill="#f96332"/>
    <path id="XMLID_151_" d="M133.5,152.012v10.282l8.475,2.676V154.846Z" transform="translate(-123.044 -128.817)" fill="#f96332"/>
    <path id="XMLID_154_" d="M269,153.437v10.125l8.843-2.792V150.48Z" transform="translate(-247.937 -127.408)" fill="#f96332"/>
    <path id="XMLID_173_" d="M409.08,110.03v10.334l7.946-2.509V107.373Z" transform="translate(-377.026 -87.763)" fill="#f96332"/>
    <path id="XMLID_177_" d="M409.08,271.827v11.784l7.946-2.769V269.318Z" transform="translate(-377.026 -236.7)" fill="#f96332"/>
    <path id="XMLID_178_" d="M277.843,310.029,269,312.821v12.151l8.843-3.081Z" transform="translate(-247.937 -274.14)" fill="#f96332"/>
    <path id="XMLID_179_" d="M141.975,314.151l-8.475-2.676V323.35l8.475,2.953Z" transform="translate(-123.044 -275.47)" fill="#f96332"/>
    <path id="XMLID_180_" d="M26.589,56.936l7.483-2.506-7.536-2.656-8.149,2.419Z" transform="translate(-16.91 -36.631)" fill="#f96332"/>
    <path id="XMLID_181_" d="M305.971,57.195l6.753,2.38,8-2.675-7.352-2.183Z" transform="translate(-282.2 -39.337)" fill="#f96332"/>
    <path id="XMLID_182_" d="M176.142,16.554l7.074-2.369-7.551-2.242-6.842,2.031Z" transform="translate(-155.676)" fill="#f96332"/>
    <path id="XMLID_187_" d="M8.314,120.48V110.153L0,107.373v10.482Z" transform="translate(0 -87.763)" fill="#f96332"/>
    <path id="XMLID_188_" d="M8.314,271.943,0,269.318v11.525l8.314,2.9Z" transform="translate(0 -236.7)" fill="#f96332"/>
  </g>
</svg>
